<svg width="25" height="24" viewBox="0 0 25 24" fill="none" xmlns="http://www.w3.org/2000/svg">
<g clip-path="url(#clip0_614_372)">
<path d="M12.5 16.0003C12.2664 16.0007 12.0399 15.9194 11.86 15.7703L5.86003 10.7703C5.65581 10.6005 5.52739 10.3566 5.50301 10.0922C5.47863 9.82777 5.56029 9.56449 5.73003 9.36028C5.89977 9.15606 6.14368 9.02763 6.40811 9.00325C6.67253 8.97888 6.93581 9.06054 7.14003 9.23028L12.5 13.7103L17.86 9.39028C17.9623 9.30721 18.08 9.24518 18.2064 9.20775C18.3327 9.17031 18.4652 9.15822 18.5962 9.17216C18.7272 9.1861 18.8542 9.2258 18.9699 9.28897C19.0855 9.35214 19.1875 9.43755 19.27 9.54028C19.3616 9.6431 19.431 9.76372 19.4738 9.8946C19.5166 10.0255 19.5319 10.1638 19.5187 10.3008C19.5056 10.4379 19.4643 10.5708 19.3974 10.6911C19.3305 10.8115 19.2395 10.9167 19.13 11.0003L13.13 15.8303C12.9449 15.9558 12.7231 16.0156 12.5 16.0003Z" fill="white"/>
</g>
<defs>
<clipPath id="clip0_614_372">
<rect width="24" height="24" fill="white" transform="translate(0.5)"/>
</clipPath>
</defs>
</svg>
