<svg width="37" height="25" viewBox="0 0 37 25" fill="none" xmlns="http://www.w3.org/2000/svg">
<path d="M0.697266 0.5H36.6965V24.4998H0.697266V0.5Z" fill="white"/>
<path d="M20.9469 0.5H16.447V10.2498H0.697266V14.7497H16.447V24.4994H20.9469V14.7497H36.6965V10.2498H20.9469V0.5Z" fill="#D80027"/>
<path d="M28.3842 16.6736L36.6961 21.2913V16.6736H28.3842ZM22.6094 16.6736L36.6961 24.4995V22.2865L26.5929 16.6736H22.6094ZM32.9438 24.4995L22.6094 18.7576V24.4995H32.9438Z" fill="#0052B4"/>
<path d="M22.6094 16.6736L36.6961 24.4995V22.2865L26.5929 16.6736H22.6094Z" fill="white"/>
<path d="M22.6094 16.6736L36.6961 24.4995V22.2865L26.5929 16.6736H22.6094Z" fill="#D80027"/>
<path d="M7.04924 16.6733L0.697266 20.2023V16.6733H7.04924ZM14.784 17.6685V24.4993H2.48957L14.784 17.6685Z" fill="#0052B4"/>
<path d="M10.8005 16.6736L0.697266 22.2865V24.4995L14.784 16.6736H10.8005Z" fill="#D80027"/>
<path d="M9.00909 8.32591L0.697266 3.70815V8.32591H9.00909ZM14.784 8.32591L0.697266 0.5V2.71297L10.8005 8.32591H14.784ZM4.44949 0.5L14.784 6.24189V0.5H4.44949Z" fill="#0052B4"/>
<path d="M14.784 8.32591L0.697266 0.5V2.71297L10.8005 8.32591H14.784Z" fill="white"/>
<path d="M14.784 8.32591L0.697266 0.5V2.71297L10.8005 8.32591H14.784Z" fill="#D80027"/>
<path d="M30.3441 8.32598L36.6961 4.79706V8.32598H30.3441ZM22.6094 7.33079V0.5H34.9038L22.6094 7.33079Z" fill="#0052B4"/>
<path d="M26.5929 8.32591L36.6961 2.71297V0.5L22.6094 8.32591H26.5929Z" fill="#D80027"/>
</svg>
