<svg width="31" height="30" viewBox="0 0 31 30" fill="none" xmlns="http://www.w3.org/2000/svg">
<path d="M15.6973 2.51953C8.7832 2.51953 3.2168 8.08594 3.2168 15C3.2168 21.9141 8.7832 27.4805 15.6973 27.4805C22.6113 27.4805 28.1777 21.9141 28.1777 15C28.1777 8.08594 22.6113 2.51953 15.6973 2.51953ZM15.6973 25.0195C10.1895 25.0195 5.67773 20.5078 5.67773 15C5.67773 9.49219 10.1895 4.98047 15.6973 4.98047C21.2051 4.98047 25.7168 9.49219 25.7168 15C25.7168 20.5078 21.2051 25.0195 15.6973 25.0195ZM21.4395 9.49219L13.1777 17.6953L9.95508 14.4727L8.19727 16.2305L13.1777 21.2695L23.1973 11.25L21.4395 9.49219Z" fill="#F9B800"/>
</svg>
